<?xml version="1.0" encoding="utf-8"?>
<svg xmlns="http://www.w3.org/2000/svg" xmlns:svg="http://www.w3.org/2000/svg" version="1.1" viewBox="0 0 1400 340">
	<title>The titlepage for the Standard Ebooks edition of Northanger Abbey, by Jane Austen</title>
	<g aria-label="NORTHANGER ABBEY">
		<path d="m 162.76973,82.093566 h 0.18713 L 193.64692,130 h 17.59065 V 52.807016 h -17.59065 v 47.906434 h -0.18713 L 162.76973,52.807016 H 145.17908 V 130 h 17.59065 z"/>
		<path d="m 224.01973,91.356724 c 0,22.549706 16.09357,40.046786 38.92398,40.046786 22.17544,0 38.83041,-17.49708 38.83041,-40.046786 0,-22.549708 -17.40351,-39.953217 -38.83041,-39.953217 -21.23977,0 -38.92398,17.403509 -38.92398,39.953217 z m 18.99415,0 c 0,-11.508772 6.36258,-23.017544 19.92983,-23.017544 13.66082,0 19.83626,11.508772 19.83626,23.017544 0,11.508776 -5.80117,23.017546 -19.83626,23.017546 -14.40936,0 -19.92983,-11.50877 -19.92983,-23.017546 z"/>
		<path d="M 314.5358,52.807016 V 130 h 17.59065 V 99.497075 L 355.7054,130 h 22.36257 l -26.5731,-31.906433 c 9.45029,-2.994152 15.81287,-10.760234 15.81287,-22.362574 0,-15.157895 -10.85381,-22.923977 -25.1696,-22.923977 z m 17.59065,34.245615 V 66.842104 h 2.05848 c 6.64327,0 14.59649,0.467836 14.59649,10.105263 0,9.637428 -7.95322,10.105264 -14.59649,10.105264 z"/>
		<path d="m 378.08406,68.245613 h 18.33919 V 130 h 17.59064 V 68.245613 h 18.33918 V 52.807016 h -54.26901 z"/>
		<path d="m 461.27852,99.029239 h 24.88889 V 130 h 17.59064 V 52.807016 H 486.16741 V 83.590642 H 461.27852 V 52.807016 H 443.68787 V 130 h 17.59065 z"/>
		<path d="m 559.16446,52.807016 h -16.2807 L 511.72587,130 h 18.90058 l 5.7076,-15.4386 h 29.38012 L 571.42177,130 h 18.90059 z m 0.56141,46.31579 h -17.40351 l 8.60819,-22.45614 h 0.18713 z"/>
		<path d="m 615.83259,82.093566 h 0.18714 L 646.70979,130 h 17.59064 V 52.807016 h -17.59064 v 47.906434 h -0.18714 L 615.83259,52.807016 H 598.24195 V 130 h 17.59064 z"/>
		<path d="m 750.34573,86.771929 h -35.64912 v 13.567251 h 17.77778 c 0,9.45029 -8.32749,14.87719 -16.74854,14.87719 -10.8538,0 -19.64912,-10.66666 -19.64912,-23.766078 0,-13.380117 8.79532,-24.140352 19.64912,-24.140352 6.83041,0 12.72515,2.713451 17.21637,9.918129 L 744.451,64.59649 c -6.73685,-8.140351 -16.18714,-13.192983 -29.75439,-13.192983 -21.7076,0 -37.61404,17.871346 -37.61404,40.046785 0,22.081868 16.84211,39.953218 37.61404,39.953218 15.1579,0 31.4386,-8.32749 35.64912,-27.88304 z"/>
		<path d="M 807.19372,52.807016 H 763.02998 V 130 h 44.16374 v -15.4386 h -26.5731 V 99.029239 h 25.45029 V 83.590642 H 780.62062 V 68.245613 h 26.5731 z"/>
		<path d="M 822.30628,52.807016 V 130 h 17.59065 V 99.497075 L 863.47587,130 h 22.36258 l -26.5731,-31.906433 c 9.45029,-2.994152 15.81286,-10.760234 15.81286,-22.362574 0,-15.157895 -10.8538,-22.923977 -25.16959,-22.923977 z m 17.59065,34.245615 V 66.842104 h 2.05847 c 6.64328,0 14.5965,0.467836 14.5965,10.105263 0,9.637428 -7.95322,10.105264 -14.5965,10.105264 z"/>
		<path d="m 964.16446,52.807016 h -16.2807 L 916.72587,130 h 18.90058 l 5.7076,-15.4386 h 29.38012 L 976.42177,130 h 18.90059 z m 0.56141,46.31579 h -17.40351 l 8.60819,-22.45614 h 0.18713 z"/>
		<path d="M 1003.242,52.807016 V 130 h 29.2865 c 16,0 25.2632,-8.79532 25.2632,-21.52047 0,-12.444443 -6.8305,-17.777776 -16.4679,-19.461987 6.5497,-3.368421 9.6374,-9.450292 9.6374,-16.561404 0,-14.690058 -10.4795,-19.649123 -23.766,-19.649123 z m 17.5906,30.222223 V 66.374268 h 1.4035 c 7.6725,0 11.6959,2.339181 11.6959,7.859649 0,6.456141 -4.1169,8.795322 -11.6959,8.795322 z m 0,33.403511 V 98.187134 h 5.5205 c 8.3274,0 12.9122,2.526316 12.9122,9.637426 0,6.08187 -4.5848,8.60819 -12.9122,8.60819 z"/>
		<path d="M 1070.5592,52.807016 V 130 h 29.2866 c 16,0 25.2631,-8.79532 25.2631,-21.52047 0,-12.444443 -6.8304,-17.777776 -16.4678,-19.461987 6.5497,-3.368421 9.6374,-9.450292 9.6374,-16.561404 0,-14.690058 -10.4795,-19.649123 -23.7661,-19.649123 z m 17.5907,30.222223 V 66.374268 h 1.4035 c 7.6725,0 11.6959,2.339181 11.6959,7.859649 0,6.456141 -4.117,8.795322 -11.6959,8.795322 z m 0,33.403511 V 98.187134 h 5.5204 c 8.3275,0 12.9123,2.526316 12.9123,9.637426 0,6.08187 -4.5848,8.60819 -12.9123,8.60819 z"/>
		<path d="m 1182.0402,52.807016 h -44.1637 V 130 h 44.1637 v -15.4386 h -26.5731 V 99.029239 h 25.4503 V 83.590642 h -25.4503 V 68.245613 h 26.5731 z"/>
		<path d="m 1188.7318,52.807016 28.4444,42.5731 V 130 h 17.5907 V 95.380116 l 28.4444,-42.5731 h -21.1462 l -16.0935,24.701755 -16.0936,-24.701755 z"/>
	</g>
	<g aria-label="JANE AUSTEN">
		<path d="m 456.52796,232.10526 h -13.19298 v 38.17544 c 0,5.82456 -2.87719,8.14035 -6.66667,8.14035 -3.36842,0 -7.50877,-3.92982 -7.50877,-3.92982 l -4.21052,11.01754 c 0,0 5.26315,5.54386 13.54386,5.54386 11.57894,0 18.03508,-6.03509 18.03508,-17.40351 z"/>
		<path d="M 498.63323,232.10526 H 486.4227 L 463.05428,290 h 14.17544 l 4.2807,-11.57895 h 22.03509 L 507.82621,290 h 14.17544 z m 0.42105,34.73685 H 486.00165 L 492.45779,250 h 0.14035 z"/>
		<path d="m 542.38432,254.07018 h 0.14035 L 565.54222,290 h 13.19298 v -57.89474 h -13.19298 v 35.92983 h -0.14035 L 542.38432,232.10526 H 529.19134 V 290 h 13.19298 z"/>
		<path d="M 625.29113,232.10526 H 592.16832 V 290 h 33.12281 v -11.57895 h -19.92982 v -11.64912 h 19.08772 v -11.57895 h -19.08772 v -11.50877 h 19.92982 z"/>
		<path d="M 691.46766,232.10526 H 679.25713 L 655.88871,290 h 14.17544 l 4.2807,-11.57895 h 22.03509 L 700.66064,290 h 14.17544 z m 0.42105,34.73685 H 678.83608 L 685.29222,250 h 0.14035 z"/>
		<path d="m 766.517,232.10526 h -13.19298 v 33.47369 c 0,9.68421 -2.94737,12.49123 -9.40351,12.49123 -6.45614,0 -9.40351,-2.80702 -9.40351,-12.49123 v -33.47369 h -13.19298 v 37.33334 c 0,14.31579 7.85965,21.61403 22.59649,21.61403 14.73684,0 22.59649,-7.29824 22.59649,-21.61403 z"/>
		<path d="m 799.2089,231.05263 c -9.33333,0 -18.87719,6.8772 -18.87719,17.68421 0,6.03509 4.07017,11.4386 11.01754,14.8772 6.8772,3.43859 13.05263,5.33333 13.05263,9.54385 0,5.40351 -5.47368,5.68422 -8.35087,5.68422 -6.45614,0 -14.17544,-6.52632 -14.17544,-6.52632 l -6.59649,11.08772 c 0,0 8.21052,7.64912 21.75438,7.64912 11.29825,0 21.82456,-4.8421 21.82456,-18.66666 0,-7.57895 -7.08771,-13.05264 -13.54385,-15.78948 -6.5965,-2.80702 -12.07018,-5.12281 -12.07018,-8.35088 0,-3.15789 2.38596,-5.19298 6.87719,-5.19298 5.96491,0 11.7193,4 11.7193,4 l 5.33333,-10.52631 c 0,0 -7.43859,-5.47369 -17.96491,-5.47369 z"/>
		<path d="M 822.94901,243.68421 H 836.7034 V 290 h 13.19298 v -46.31579 h 13.75438 v -11.57895 h -40.70175 z"/>
		<path d="M 906.52468,232.10526 H 873.40187 V 290 h 33.12281 v -11.57895 h -19.92982 v -11.64912 h 19.08772 v -11.57895 h -19.08772 v -11.50877 h 19.92982 z"/>
		<path d="m 932.3021,254.07018 h 0.14035 L 955.46,290 h 13.19298 V 232.10526 H 955.46 v 35.92983 h -0.14035 L 932.3021,232.10526 H 919.10912 V 290 h 13.19298 z"/>
	</g>
</svg>
